<?xml version="1.0" encoding="UTF-8" standalone="no"?>
<!-- Created with Inkscape (http://www.inkscape.org/) -->

<svg
   width="256"
   height="256"
   viewBox="0 0 67.733332 67.733333"
   version="1.1"
   id="svg1"
   inkscape:version="1.3.2 (091e20e, 2023-11-25, custom)"
   sodipodi:docname="GuiItems.svg"
   xmlns:inkscape="http://www.inkscape.org/namespaces/inkscape"
   xmlns:sodipodi="http://sodipodi.sourceforge.net/DTD/sodipodi-0.dtd"
   xmlns="http://www.w3.org/2000/svg"
   xmlns:svg="http://www.w3.org/2000/svg">
  <sodipodi:namedview
     id="namedview1"
     pagecolor="#dcebdc"
     bordercolor="#666666"
     borderopacity="1.0"
     inkscape:showpageshadow="2"
     inkscape:pageopacity="0.0"
     inkscape:pagecheckerboard="0"
     inkscape:deskcolor="#d1d1d1"
     inkscape:document-units="px"
     inkscape:zoom="5.564598"
     inkscape:cx="36.840037"
     inkscape:cy="70.714901"
     inkscape:window-width="1680"
     inkscape:window-height="987"
     inkscape:window-x="-8"
     inkscape:window-y="-8"
     inkscape:window-maximized="1"
     inkscape:current-layer="layer1" />
  <defs
     id="defs1" />
  <g
     inkscape:label="Layer 1"
     inkscape:groupmode="layer"
     id="layer1">
    <rect
       style="fill:#ffffff;fill-opacity:1;stroke:#000000;stroke-width:0.529167;stroke-linecap:square;stroke-dasharray:none"
       id="rect1"
       width="5.8208332"
       height="7.9375"
       x="0.52916682"
       y="0.52916682"
       ry="2.3903406"
       inkscape:export-filename="Thumb.png"
       inkscape:export-xdpi="96.2588"
       inkscape:export-ydpi="96.2588" />
    <rect
       style="fill:#ffffff;fill-opacity:1;stroke:#000000;stroke-width:0.529167;stroke-linecap:square;stroke-dasharray:none"
       id="rect1-9"
       width="7.9375"
       height="7.9375"
       x="8.5358305"
       y="0.58515763"
       ry="1.0583333"
       inkscape:export-filename="Thumb.png"
       inkscape:export-xdpi="96.2588"
       inkscape:export-ydpi="96.2588" />
    <path
       id="rect1-9-3"
       style="fill:#ffffff;stroke:#000000;stroke-width:0.529167;stroke-linecap:square;stroke-dasharray:none"
       d="M 28.04355,8.3603235 C 27.540114,8.6730471 26.722917,8.1434205 26.722917,7.5303372 V 1.4437625 c 0,-0.63903948 0.726119,-1.11138935 1.320633,-0.82998729 l 4.899291,3.04328729 c 0.534684,0.4411611 0.589836,1.0833795 -7.5e-5,1.6599747 z"
       sodipodi:nodetypes="ssscccs"
       inkscape:export-filename="Play.png"
       inkscape:export-xdpi="96.258797"
       inkscape:export-ydpi="96.258797" />
    <g
       id="g3"
       transform="translate(18.785416,-21.581965)"
       inkscape:export-filename="Faster.png"
       inkscape:export-xdpi="96.258797"
       inkscape:export-ydpi="96.258797">
      <path
         id="rect1-9-3-7-2"
         style="fill:#ffffff;stroke:#000000;stroke-width:0.529167;stroke-linecap:square;stroke-dasharray:none"
         d="M 28.047265,29.855307 C 27.592692,30.289676 26.9875,29.896167 26.9875,29.249916 v -6.415824 c 0,-0.673608 0.665745,-0.942204 1.059765,-0.530665 l 2.329038,2.863692 c 0.393681,0.57994 0.417819,1.059902 0,1.74977 z"
         sodipodi:nodetypes="csscccc" />
      <path
         id="rect1-9-3-7-2-6"
         style="fill:#ffffff;stroke:#000000;stroke-width:0.529167;stroke-linecap:square;stroke-dasharray:none"
         d="m 32.545181,29.855307 c -0.454573,0.434369 -1.059765,0.04086 -1.059765,-0.605391 v -6.415824 c 0,-0.673608 0.665745,-0.942204 1.059765,-0.530665 l 2.329038,2.863692 c 0.393681,0.57994 0.417819,1.059902 0,1.74977 z"
         sodipodi:nodetypes="csscccc" />
    </g>
    <rect
       style="fill:#ffffff;fill-opacity:1;stroke:#000000;stroke-width:0.529167;stroke-linecap:square;stroke-dasharray:none"
       id="rect1-0"
       width="63.5"
       height="1.3229166"
       x="0.52916682"
       y="9.7895832"
       ry="0.52916664"
       inkscape:export-filename="Slider.png"
       inkscape:export-xdpi="96"
       inkscape:export-ydpi="96" />
    <g
       id="g1"
       transform="translate(-4.4979162)"
       inkscape:export-filename="Pause.png"
       inkscape:export-xdpi="96.258797"
       inkscape:export-ydpi="96.258797">
      <rect
         style="fill:#ffffff;fill-opacity:1;stroke:#000000;stroke-width:0.529167;stroke-linecap:square;stroke-dasharray:none"
         id="rect1-96"
         width="2.1166666"
         height="7.9375"
         x="23.283333"
         y="0.52916682"
         ry="1.0583333"
         inkscape:export-filename="Thumb.png"
         inkscape:export-xdpi="96.2588"
         inkscape:export-ydpi="96.2588" />
      <rect
         style="fill:#ffffff;fill-opacity:1;stroke:#000000;stroke-width:0.529167;stroke-linecap:square;stroke-dasharray:none"
         id="rect1-96-4"
         width="2.1166666"
         height="7.9375"
         x="26.722916"
         y="0.52916682"
         ry="1.0583333"
         inkscape:export-filename="Thumb.png"
         inkscape:export-xdpi="96.2588"
         inkscape:export-ydpi="96.2588" />
    </g>
    <path
       id="rect1-96-1"
       style="fill:#ffffff;stroke:#000000;stroke-width:0.529167;stroke-linecap:square"
       d="m 1.5278973,13.49555 c -0.1176746,0.0063 -0.2322074,0.03846 -0.3374468,0.09922 -0.42095789,0.24304 -0.52415221,0.847707 -0.23099369,1.355472 L 2.4120814,17.466368 0.95945701,19.98301 c -0.29315832,0.507765 -0.18996405,1.111916 0.23099349,1.354956 0.4209581,0.243041 0.9956517,0.03027 1.28881,-0.47749 l 0.9461955,-1.63866 0.9461957,1.63866 c 0.293158,0.507765 0.868369,0.72053 1.2893269,0.47749 0.4209578,-0.24304 0.5236349,-0.847191 0.2304769,-1.354956 L 4.4388306,17.466367 5.8914552,14.950242 C 6.1846134,14.442478 6.0819365,13.83781 5.6609786,13.59477 5.2400214,13.35173 4.6648093,13.565011 4.3716517,14.072777 L 3.4254561,15.711436 2.4792606,14.072776 C 2.2593921,13.691953 1.8809217,13.476759 1.5278973,13.49555 Z"
       inkscape:export-filename="X.png"
       inkscape:export-xdpi="96.2588"
       inkscape:export-ydpi="96.2588" />
    <path
       id="rect1-96-4-6-3"
       style="fill:#ffffff;stroke:#000000;stroke-width:0.529167;stroke-linecap:square"
       d="m 15.233797,13.49402 c -0.06148,-0.0017 -0.122195,0.0047 -0.181901,0.01705 -0.02582,0.0054 -0.05132,0.01174 -0.07648,0.01964 -0.0247,0.0078 -0.049,0.01672 -0.07286,0.02687 -0.0217,0.0092 -0.04322,0.01932 -0.06408,0.03049 -0.0044,0.0023 -0.0086,0.0048 -0.01292,0.0072 -0.01594,0.0089 -0.03168,0.01837 -0.04702,0.02842 -0.0082,0.0054 -0.01628,0.01089 -0.02429,0.01654 -0.01175,0.0083 -0.02329,0.01683 -0.03462,0.02584 -0.0099,0.0078 -0.01943,0.016 -0.02894,0.02429 -0.0088,0.0077 -0.01733,0.01561 -0.02584,0.02377 -0.01316,0.01253 -0.02597,0.02535 -0.03824,0.03876 -0.0034,0.0038 -0.007,0.0075 -0.01033,0.01137 -0.01558,0.01769 -0.02996,0.03624 -0.04392,0.05529 -0.0012,0.0016 -0.0025,0.003 -0.0036,0.0047 -0.01543,0.02138 -0.02962,0.04374 -0.04289,0.06666 -0.0055,0.0095 -0.01144,0.01871 -0.01654,0.02842 l -2.497006,4.325317 c -0.003,0.0053 -0.0054,0.01071 -0.0083,0.01602 -0.002,0.0037 -0.0037,0.0076 -0.0057,0.01137 -0.01028,0.01948 -0.0199,0.039 -0.02842,0.05891 -0.0011,0.0026 -0.002,0.0052 -0.0031,0.0078 -0.0091,0.02202 -0.01724,0.04425 -0.02429,0.06666 -0.0494,0.157133 -0.04741,0.321996 0,0.473356 0.0073,0.02346 0.01581,0.04653 0.02532,0.06925 0.0011,0.0026 0.002,0.0052 0.0031,0.0078 0.0096,0.02217 0.01993,0.04383 0.03152,0.06511 0.01148,0.02108 0.02378,0.04144 0.03721,0.0615 0.0021,0.0031 0.0041,0.0062 0.0062,0.0093 0.01134,0.01643 0.02353,0.03244 0.03617,0.04806 0.0047,0.0058 0.0096,0.01137 0.01447,0.01705 0.01082,0.01262 0.0219,0.02521 0.03359,0.03721 0.0087,0.009 0.01772,0.01775 0.02687,0.02635 0.0077,0.0072 0.01526,0.0143 0.02326,0.02119 0.01631,0.01416 0.03319,0.0275 0.05064,0.04031 0.0017,0.0012 0.0035,0.0024 0.0052,0.0036 0.01983,0.01431 0.04034,0.02784 0.0615,0.04031 0.0017,0.001 0.0034,0.0021 0.0052,0.0031 8.11e-4,4.68e-4 0.0018,5.69e-4 0.0026,0.001 0.02246,0.0129 0.04545,0.02496 0.06925,0.03566 2.1e-4,9.5e-5 3.07e-4,4.23e-4 5.17e-4,5.17e-4 0.02341,0.0105 0.04727,0.01967 0.07183,0.02791 8.73e-4,2.96e-4 0.0017,7.42e-4 0.0026,0.001 3.1e-4,1.02e-4 7.24e-4,-1.02e-4 10e-4,0 0.02108,0.007 0.04276,0.01288 0.06459,0.01809 0.0043,10e-4 0.0086,0.0026 0.01292,0.0036 0.01677,0.0037 0.034,0.0062 0.05116,0.0088 0.01036,0.0016 0.02063,0.0035 0.03101,0.0047 0.0101,0.0011 0.02027,0.0018 0.03049,0.0026 0.01747,0.0013 0.03475,0.0024 0.05219,0.0026 0.0026,2.6e-5 0.0051,5.17e-4 0.0078,5.17e-4 h 1.717724 v 1.203028 c 0,0.439735 0.354014,0.79375 0.79375,0.79375 0.439737,0 0.79375,-0.354015 0.79375,-0.79375 v -1.203028 h 0.398942 c 0.439737,0 0.79375,-0.354012 0.79375,-0.79375 0,-0.439736 -0.354013,-0.79375 -0.79375,-0.79375 h -0.398942 v -3.520198 c 0.0062,-0.120016 -0.01564,-0.23906 -0.06201,-0.348816 -0.01988,-0.04705 -0.04449,-0.09213 -0.07338,-0.134876 -0.01419,-0.02099 -0.02919,-0.04129 -0.04547,-0.06098 -0.01611,-0.01947 -0.03304,-0.03829 -0.05116,-0.05633 -0.01741,-0.01732 -0.03555,-0.03428 -0.05478,-0.05013 -4.77e-4,-3.93e-4 -0.0011,-6.42e-4 -0.0015,-10e-4 -0.001,-8.56e-4 -0.0021,-0.0017 -0.0031,-0.0026 -0.01739,-0.01412 -0.03544,-0.0275 -0.05426,-0.04031 -0.0012,-8.3e-4 -0.0024,-0.0018 -0.0036,-0.0026 -0.0024,-0.0016 -0.0049,-0.0031 -0.0072,-0.0047 -0.01301,-0.0085 -0.02561,-0.01743 -0.03927,-0.02532 -0.0063,-0.0036 -0.01278,-0.0064 -0.01912,-0.0098 -0.113694,-0.06167 -0.235947,-0.09336 -0.357084,-0.09663 z m -0.815454,3.75791 v 0.596346 h -0.344165 z"
       inkscape:export-filename="4.png"
       inkscape:export-xdpi="96.2588"
       inkscape:export-ydpi="96.2588" />
    <g
       id="g2"
       transform="translate(15.345833,-23.201828)"
       inkscape:export-filename="SingleStep.png"
       inkscape:export-xdpi="96.258797"
       inkscape:export-ydpi="96.258797">
      <path
         id="rect1-9-3-7"
         style="fill:#ffffff;stroke:#000000;stroke-width:0.529167;stroke-linecap:square;stroke-dasharray:none"
         d="m 24.929313,31.48394 c -0.454573,0.434369 -1.059765,0.04086 -1.059765,-0.605391 v -6.415824 c 0,-0.673608 0.665745,-0.942204 1.059765,-0.530665 l 2.329038,2.863692 c 0.393681,0.57994 0.417819,1.059902 0,1.74977 z"
         sodipodi:nodetypes="csscccc" />
      <rect
         style="fill:#ffffff;fill-opacity:1;stroke:#000000;stroke-width:0.529167;stroke-linecap:square;stroke-dasharray:none"
         id="rect1-96-4-0"
         width="2.1166666"
         height="7.9375"
         x="20.372917"
         y="23.730995"
         ry="1.0583333"
         inkscape:export-filename="Thumb.png"
         inkscape:export-xdpi="96.2588"
         inkscape:export-ydpi="96.2588" />
    </g>
    <path
       style="fill:#ffffff;fill-rule:evenodd;stroke:#000000;stroke-width:0.529152;stroke-linecap:round;stroke-linejoin:round;stroke-dasharray:none;stroke-opacity:1"
       d="m 62.657356,3.4779775 1.105739,0.876208 c 0.04924,1.811252 -1.103684,3.419988 -2.819051,3.941235 -1.715367,0.521246 -3.566634,-0.174605 -4.51583,-1.697408 -0.949196,-1.522802 -0.760299,-3.493895 0.460782,-4.808129 1.22108,-1.31423298 3.170712,-1.64481098 4.746052,-0.786456 l -1.223851,0.594831 0.239515,1.247074 c -0.766414,-0.378911 -1.66468,-0.213481 -2.224149,0.399395 -0.559468,0.612875 -0.643579,1.523595 -0.205843,2.228826 0.437735,0.70523 1.290467,1.032828 2.086907,0.801735 0.796442,-0.231093 1.342184,-0.964465 1.349091,-1.81387 z"
       id="path4"
       sodipodi:nodetypes="ccssscccssscc"
       inkscape:export-filename="Rotate.png"
       inkscape:export-xdpi="96.258797"
       inkscape:export-ydpi="96.258797" />
    <path
       id="path1"
       style="fill:#ffffff;stroke:#000000;stroke-width:0.529167;stroke-linecap:round;stroke-linejoin:round"
       d="m 21.103621,13.49375 a 2.3183861,4.0031362 0 0 0 -2.318204,4.002857 2.3183861,4.0031362 0 0 0 2.318204,4.003373 2.3183861,4.0031362 0 0 0 2.318722,-4.003373 2.3183861,4.0031362 0 0 0 -2.318722,-4.002857 z m 0,1.756482 a 0.72947323,2.2466571 0 0 1 0.729672,2.246375 0.72947323,2.2466571 0 0 1 -0.729672,2.246891 0.72947323,2.2466571 0 0 1 -0.729154,-2.246891 0.72947323,2.2466571 0 0 1 0.729154,-2.246375 z"
       inkscape:export-filename="0.png"
       inkscape:export-xdpi="96.2588"
       inkscape:export-ydpi="96.2588" />
    <path
       id="rect1-96-4-6"
       style="fill:#ffffff;stroke:#000000;stroke-width:0.529167;stroke-linecap:square"
       d="m 9.6976098,13.493759 c -0.105975,0 -0.211875,0.02167 -0.311092,0.06408 -0.0228,0.0097 -0.04517,0.02057 -0.06718,0.03256 -0.0069,0.0037 -0.01343,0.0075 -0.02015,0.01137 -0.0144,0.0084 -0.02893,0.01646 -0.04289,0.02584 -0.01384,0.0092 -0.02658,0.01995 -0.03979,0.02997 -0.0074,0.0057 -0.01547,0.01055 -0.02274,0.01654 -0.02023,0.01651 -0.03939,0.03431 -0.05788,0.05271 -0.0023,0.0022 -0.0045,0.0045 -0.0067,0.0067 l -1.489853,1.489831 c -0.310941,0.310941 -0.310941,0.811472 0,1.122412 0.310941,0.310942 0.811471,0.310941 1.122412,0 l 0.14056,-0.14056 v 4.434355 c 0,0.439737 0.354013,0.79375 0.79375,0.79375 0.4397382,0 0.7937512,-0.354013 0.7937512,-0.79375 v -6.308142 c 0.0119,-0.217131 -0.06442,-0.438038 -0.230994,-0.604614 C 10.103344,13.57134 9.9005049,13.49375 9.6976068,13.49375 Z"
       inkscape:export-filename="1.png"
       inkscape:export-xdpi="96.2588"
       inkscape:export-ydpi="96.2588" />
  </g>
</svg>
